<svg width="48" height="48" viewBox="0 0 48 48" fill="none" xmlns="http://www.w3.org/2000/svg">
<rect width="48" height="48" fill="white"/>
<path d="M48 28V36C48 38.2092 46.2092 40 44 40H4C1.79083 40 0 38.2092 0 36V28C0 25.7908 1.79083 24 4 24H44C46.2092 24 48 25.7908 48 28ZM44 21.3333C44.8806 21.3326 45.7524 21.5072 46.5647 21.8471L38.5208 9.78117C38.1555 9.23327 37.6606 8.78402 37.08 8.47331C36.4994 8.16259 35.8511 8.00001 35.1926 8H12.8074C12.1489 8 11.5006 8.16258 10.92 8.4733C10.3394 8.78401 9.84453 9.23326 9.47925 9.78117L1.43525 21.8471C2.24757 21.5072 3.11945 21.3326 4 21.3333H44ZM40 29.3333C38.5273 29.3333 37.3333 30.5273 37.3333 32C37.3333 33.4728 38.5273 34.6667 40 34.6667C41.4728 34.6667 42.6667 33.4728 42.6667 32C42.6667 30.5273 41.4728 29.3333 40 29.3333ZM32 29.3333C30.5273 29.3333 29.3333 30.5273 29.3333 32C29.3333 33.4728 30.5273 34.6667 32 34.6667C33.4728 34.6667 34.6667 33.4728 34.6667 32C34.6667 30.5273 33.4728 29.3333 32 29.3333Z" fill="#0088F2"/>
</svg>
