<?xml version="1.0" standalone="no"?><!DOCTYPE svg PUBLIC "-//W3C//DTD SVG 1.1//EN" "http://www.w3.org/Graphics/SVG/1.1/DTD/svg11.dtd"><svg t="1649397194176" class="icon" viewBox="0 0 1024 1024" version="1.1" xmlns="http://www.w3.org/2000/svg" p-id="3126" xmlns:xlink="http://www.w3.org/1999/xlink" width="200" height="200"><defs><style type="text/css">@font-face { font-family: feedback-iconfont; src: url("//at.alicdn.com/t/font_1031158_u69w8yhxdu.woff2?t=1630033759944") format("woff2"), url("//at.alicdn.com/t/font_1031158_u69w8yhxdu.woff?t=1630033759944") format("woff"), url("//at.alicdn.com/t/font_1031158_u69w8yhxdu.ttf?t=1630033759944") format("truetype"); }
</style></defs><path d="M842.666667 981.333333H181.333333a53.393333 53.393333 0 0 1-53.333333-53.333333V96a53.393333 53.393333 0 0 1 53.333333-53.333333h466.746667a52.986667 52.986667 0 0 1 37.713333 15.62l194.586667 194.586666a52.986667 52.986667 0 0 1 15.62 37.713334V928a53.393333 53.393333 0 0 1-53.333333 53.333333zM181.333333 85.333333a10.666667 10.666667 0 0 0-10.666666 10.666667v832a10.666667 10.666667 0 0 0 10.666666 10.666667h661.333334a10.666667 10.666667 0 0 0 10.666666-10.666667V298.666667h-160a53.393333 53.393333 0 0 1-53.333333-53.333334V85.333333z m501.333334 30.166667V245.333333a10.666667 10.666667 0 0 0 10.666666 10.666667h129.833334z m21.333333 652.5H320a21.333333 21.333333 0 0 1 0-42.666667h384a21.333333 21.333333 0 0 1 0 42.666667z m0-213.333333H320a21.333333 21.333333 0 0 1 0-42.666667h384a21.333333 21.333333 0 0 1 0 42.666667zM490.666667 298.666667H320a21.333333 21.333333 0 0 1 0-42.666667h170.666667a21.333333 21.333333 0 0 1 0 42.666667z" fill="#5C5C66" p-id="3127"></path></svg>